<svg xmlns="http://www.w3.org/2000/svg" viewBox="3294.5 177.011 50 36.517"><g transform="translate(3289 159.512)"><g transform="translate(5.5 17.499)"><path d="M54.376,24.183H35.889V22.888a5.389,5.389,0,1,0-10.778,0v1.295H6.624A1.124,1.124,0,0,0,5.5,25.307V52.893a1.124,1.124,0,0,0,1.124,1.124H54.376A1.124,1.124,0,0,0,55.5,52.893V25.307A1.124,1.124,0,0,0,54.376,24.183ZM27.358,22.888a3.142,3.142,0,1,1,6.284,0v4.5H27.358ZM53.253,51.769H7.747V26.43H25.111v2.084a1.124,1.124,0,0,0,1.124,1.124h8.531a1.124,1.124,0,0,0,1.124-1.124V26.43H53.253Z" transform="translate(-5.5 -17.499)"/><path d="M31.328,42.941H18.96a1.124,1.124,0,0,0-1.124,1.124V56.433a1.124,1.124,0,0,0,1.124,1.124H31.328a1.124,1.124,0,0,0,1.124-1.124V44.065A1.124,1.124,0,0,0,31.328,42.941ZM30.2,55.31H20.083V45.188H30.2Z" transform="translate(-10.906 -28.648)"/><path d="M56.522,43.989a1.124,1.124,0,0,0,0,2.247H68.71a1.124,1.124,0,1,0,0-2.247Z" transform="translate(-27.365 -29.107)"/><path d="M68.71,53.949H56.522a1.124,1.124,0,1,0,0,2.247H68.71a1.124,1.124,0,0,0,0-2.247Z" transform="translate(-27.365 -33.471)"/><path d="M68.71,63.909H56.522a1.124,1.124,0,0,0,0,2.247H68.71a1.124,1.124,0,0,0,0-2.247Z" transform="translate(-27.365 -37.836)"/><circle cx="1.124" cy="1.124" r="1.124" transform="translate(23.876 3.955)"/></g></g></svg>