<svg xmlns="http://www.w3.org/2000/svg" viewBox="3288 1051 55 36.25"><g transform="translate(3277 1027)"><g transform="translate(11 24)"><path d="M11,973.362a5.017,5.017,0,0,0-5,5v26.25a5.017,5.017,0,0,0,5,5H56a5.017,5.017,0,0,0,5-5v-26.25a5.017,5.017,0,0,0-5-5H11Zm0,2.5H56a2.468,2.468,0,0,1,2.5,2.5v26.25a2.468,2.468,0,0,1-2.5,2.5H11a2.468,2.468,0,0,1-2.5-2.5v-26.25a2.468,2.468,0,0,1,2.5-2.5Zm2.891,4.981a1.25,1.25,0,0,0-.762,2.188l9.531,8.613L13.148,999.9a1.253,1.253,0,0,0,1.641,1.895l9.746-8.477,5.449,4.922a5.233,5.233,0,0,0,6.992.019l5.469-4.941,9.766,8.477a1.253,1.253,0,0,0,1.641-1.895l-9.531-8.262,9.551-8.613a1.251,1.251,0,1,0-1.68-1.856L35.3,996.392a2.661,2.661,0,0,1-3.633,0L14.809,981.175a1.25,1.25,0,0,0-.918-.332Z" transform="translate(-6 -973.362)"/></g></g></svg>