<svg xmlns="http://www.w3.org/2000/svg" viewBox="3293.992 598 50 30.425"><g transform="translate(3290 483.996)"><g transform="translate(0 -952.362)"><path d="M29.586,974.464,52.952,983.7a1.63,1.63,0,0,1,0,3.04l-1.681.662v6.011a2.7,2.7,0,0,1,1.087,2.14,2.717,2.717,0,1,1-5.434,0,2.7,2.7,0,0,1,1.087-2.14v-4.721l-2.717,1.07v7.964a3.968,3.968,0,0,1-1.732,3.057A13.454,13.454,0,0,1,40,1002.8a29.942,29.942,0,0,1-11,1.987,29.942,29.942,0,0,1-11-1.987,13.454,13.454,0,0,1-3.566-2.021,3.971,3.971,0,0,1-1.732-3.056v-7.964l-7.658-3.023a1.63,1.63,0,0,1,0-3.04L28.4,974.464A1.866,1.866,0,0,1,29.586,974.464Zm-.594,3.277-18.934,7.488L28.992,992.7l18.934-7.473Zm13.041,13.313-12.447,4.924a1.647,1.647,0,0,1-1.189,0l-12.447-4.923v6.673c0-.213.009.085.56.543a10.827,10.827,0,0,0,2.717,1.511,26.916,26.916,0,0,0,9.764,1.749,26.916,26.916,0,0,0,9.764-1.749,10.827,10.827,0,0,0,2.717-1.511,2.959,2.959,0,0,0,.56-.611Z" transform="translate(0 92)"/></g></g></svg>