<svg xmlns="http://www.w3.org/2000/svg" viewBox="1750.455 160 50.192 50.192"><g transform="translate(1750.455 160)"><path d="M2.111,0A2.111,2.111,0,0,0,0,2.111V48.081a2.111,2.111,0,0,0,2.111,2.111H48.081a2.111,2.111,0,0,0,2.111-2.111V2.111A2.111,2.111,0,0,0,48.081,0ZM4.223,4.223H45.969v9.141H4.223V4.223ZM9.6,6.2a2.659,2.659,0,1,0,2.66,2.661A2.662,2.662,0,0,0,9.6,6.2Zm7.2,0a2.659,2.659,0,1,0,2.66,2.661A2.662,2.662,0,0,0,16.8,6.2Zm7.2,0A2.659,2.659,0,1,0,26.67,8.86,2.662,2.662,0,0,0,24.006,6.2ZM4.223,15.475H45.969V45.969H4.223V15.475Zm8.207,4.406a2.112,2.112,0,0,0-1.493,3.605L17.1,29.658l-6.166,6.168a2.11,2.11,0,1,0,2.986,2.984l7.658-7.661a2.109,2.109,0,0,0,0-2.986L13.923,20.5a2.107,2.107,0,0,0-1.493-.618ZM24.307,35.2a2.111,2.111,0,0,0,0,4.223H37.768a2.111,2.111,0,1,0,0-4.223Z"/></g></svg>